<svg id="Layer_1" data-name="Layer 1" xmlns="http://www.w3.org/2000/svg" xmlns:xlink="http://www.w3.org/1999/xlink" viewBox="0 0 1670 694"><defs><style>.cls-1{fill:#fff;}.cls-2{fill:url(#linear-gradient);}.cls-3{mask:url(#mask);}.cls-4{fill:url(#linear-gradient-2);}.cls-37,.cls-5{fill:none;}.cls-6{mask:url(#mask-2);}.cls-7{fill:#ccbebf;}.cls-8{mask:url(#mask-3-2);}.cls-9{fill:#31c29d;}.cls-10{fill:#54f8c6;}.cls-11{mask:url(#mask-5);}.cls-12{mask:url(#mask-9);}.cls-13{fill:url(#linear-gradient-3);}.cls-14{mask:url(#mask-10);}.cls-15{fill:#31c19c;}.cls-16{mask:url(#mask-11);}.cls-17{fill:#3e9de1;}.cls-18{fill:url(#linear-gradient-4);}.cls-19{fill:url(#linear-gradient-6);}.cls-20{mask:url(#mask-12);}.cls-21{fill:#07375f;}.cls-22{mask:url(#mask-13);}.cls-23{mask:url(#mask-14);}.cls-24{fill:#074d5f;}.cls-25{mask:url(#mask-15);}.cls-26{mask:url(#mask-16);}.cls-27{mask:url(#mask-17);}.cls-28{mask:url(#mask-18);}.cls-29{mask:url(#mask-19);}.cls-30{fill:url(#linear-gradient-7);}.cls-31{fill:#006fb9;}.cls-32{mask:url(#mask-25);}.cls-33{fill:url(#linear-gradient-8);}.cls-34{fill:url(#linear-gradient-9);}.cls-35{fill:url(#linear-gradient-10);}.cls-36{fill:url(#linear-gradient-12);}.cls-37{stroke:#282828;}.cls-38{mask:url(#mask-26);}.cls-39{mask:url(#mask-27);}.cls-40{mask:url(#mask-28-2);}.cls-41{mask:url(#mask-29);}.cls-42{mask:url(#mask-30);}.cls-43{mask:url(#mask-31);}.cls-44{mask:url(#mask-32);}.cls-45{mask:url(#mask-33);}.cls-46{fill:url(#linear-gradient-14);}.cls-47{mask:url(#mask-34-2);}.cls-48{fill:#6c7cff;}.cls-49{mask:url(#mask-35);}.cls-50{mask:url(#mask-36);}.cls-51{mask:url(#mask-37);}.cls-52{mask:url(#mask-38);}.cls-53{mask:url(#mask-39);}.cls-54{fill:#e6dcdd;}.cls-55{mask:url(#mask-40-2);}.cls-56{mask:url(#mask-41);}.cls-57{mask:url(#mask-42-2);}.cls-58{mask:url(#mask-43);}.cls-59{mask:url(#mask-44);}.cls-60{mask:url(#mask-45);}.cls-61{mask:url(#mask-46);}.cls-62{fill:#1e7871;}.cls-63{mask:url(#mask-47);}.cls-64{mask:url(#mask-48);}.cls-65{mask:url(#mask-49);}.cls-66{mask:url(#mask-50);}.cls-67{mask:url(#mask-51);}.cls-68{fill:url(#linear-gradient-15);}.cls-69{fill:url(#linear-gradient-17);}.cls-70{fill:#ffde54;}</style><linearGradient id="linear-gradient" x1="451.24" y1="1030.14" x2="452.24" y2="1030.14" gradientTransform="translate(856119.59 946092.02) rotate(180) scale(1893.53 918.19)" gradientUnits="userSpaceOnUse"><stop offset="0" stop-color="#3f9ee2"/><stop offset="1" stop-color="#31c19c"/></linearGradient><mask id="mask" x="-207.53" y="-224.55" width="3482.35" height="3186.08" maskUnits="userSpaceOnUse"><g id="mask-3"><path id="path-2" class="cls-1" d="M-175.85-224.55,114,147C223.36,282.22,569.44,508.26,801.75,444c261.56-83.58,475.91-65.54,624.84,6.7L1686,585.88V693.64H-106l-101.48-745Z"/></g></mask><linearGradient id="linear-gradient-2" x1="451.75" y1="1030.1" x2="452.75" y2="1030.1" gradientTransform="translate(274027.24 866048.36) rotate(180) scale(603.36 840.07)" gradientUnits="userSpaceOnUse"><stop offset="0" stop-color="#3d9ce1"/><stop offset="1" stop-color="#1d7770"/></linearGradient><mask id="mask-2" x="602.7" y="-655.56" width="3343.56" height="2446.85" maskUnits="userSpaceOnUse"><g id="mask-22"><polyline id="path-21" class="cls-1" points="3188.5 -655.56 1895.6 1582.88 602.7 -655.56"/></g></mask><mask id="mask-3-2" x="602.7" y="-655.56" width="2585.8" height="2238.44" maskUnits="userSpaceOnUse"><g id="mask-24"><polyline id="path-23" class="cls-1" points="3188.5 -655.56 1895.6 1582.88 602.7 -655.56"/></g></mask><mask id="mask-5" x="420.18" y="-818.93" width="3467.12" height="2401.81" maskUnits="userSpaceOnUse"><g id="mask-34"><polyline id="path-33" class="cls-1" points="3188.5 -655.56 1895.6 1582.88 602.7 -655.56"/></g></mask><mask id="mask-9" x="1165.12" y="268.35" width="294.94" height="429.68" maskUnits="userSpaceOnUse"><g id="mask-70"><path id="path-69" class="cls-1" d="M1460.06,268.52a2556.62,2556.62,0,0,1-62.22,377.17h0q-6.4,26.28-13.31,52.35h0L1165.12,318.16c95.91-34.89,189-49.81,278.53-49.81h0c5.49,0,10.95.06,16.41.17"/></g></mask><linearGradient id="linear-gradient-3" x1="452.53" y1="1029.72" x2="454.57" y2="1029.72" gradientTransform="translate(134931.25 442936.73) rotate(180) scale(294.94 429.68)" gradientUnits="userSpaceOnUse"><stop offset="0" stop-color="#ccbdbf"/><stop offset="1" stop-color="#54f7c6"/></linearGradient><mask id="mask-10" x="-405.31" y="-655.56" width="3593.81" height="2238.44" maskUnits="userSpaceOnUse"><g id="mask-75"><polyline id="path-74" class="cls-1" points="3188.5 -655.56 1895.6 1582.88 602.7 -655.56"/></g></mask><mask id="mask-11" x="351.56" y="-655.56" width="2836.94" height="2238.44" maskUnits="userSpaceOnUse"><g id="mask-83"><polyline id="path-82" class="cls-1" points="3188.5 -655.56 1895.6 1582.88 602.7 -655.56"/></g></mask><linearGradient id="linear-gradient-4" x1="451.75" y1="1030.1" x2="452.75" y2="1030.1" gradientTransform="translate(274027.24 866048.36) rotate(180) scale(603.36 840.07)" gradientUnits="userSpaceOnUse"><stop offset="0" stop-color="#074d5e"/><stop offset="1" stop-color="#31c19c"/></linearGradient><linearGradient id="linear-gradient-6" x1="451.75" y1="1030.1" x2="452.75" y2="1030.1" gradientTransform="translate(274027.24 866048.36) rotate(180) scale(603.36 840.07)" gradientUnits="userSpaceOnUse"><stop offset="0" stop-color="#006eb8"/><stop offset="1" stop-color="#31c19c"/></linearGradient><mask id="mask-12" x="-690.19" y="-655.56" width="4636.45" height="2446.85" maskUnits="userSpaceOnUse"><g id="mask-103"><polyline id="path-102" class="cls-1" points="1895.6 1582.88 -690.19 1582.88 602.71 -655.56"/></g></mask><mask id="mask-13" x="-690.19" y="-655.56" width="2900.97" height="2238.44" maskUnits="userSpaceOnUse"><g id="mask-105"><polyline id="path-104" class="cls-1" points="1895.6 1582.88 -690.19 1582.88 602.71 -655.56"/></g></mask><mask id="mask-14" x="-690.19" y="-655.56" width="2901.02" height="2238.44" maskUnits="userSpaceOnUse"><g id="mask-109"><polyline id="path-108" class="cls-1" points="1895.6 1582.88 -690.19 1582.88 602.71 -655.56"/></g></mask><mask id="mask-15" x="-690.19" y="-818.93" width="4577.49" height="2401.81" maskUnits="userSpaceOnUse"><g id="mask-115"><polyline id="path-114" class="cls-1" points="1895.6 1582.88 -690.19 1582.88 602.71 -655.56"/></g></mask><mask id="mask-16" x="-690.19" y="-655.56" width="2899.73" height="2238.44" maskUnits="userSpaceOnUse"><g id="mask-121"><polyline id="path-120" class="cls-1" points="1895.6 1582.88 -690.19 1582.88 602.71 -655.56"/></g></mask><mask id="mask-17" x="-690.19" y="-655.56" width="2914.74" height="2238.44" maskUnits="userSpaceOnUse"><g id="mask-123"><polyline id="path-122" class="cls-1" points="1895.6 1582.88 -690.19 1582.88 602.71 -655.56"/></g></mask><mask id="mask-18" x="-690.19" y="-655.56" width="2585.79" height="2238.44" maskUnits="userSpaceOnUse"><g id="mask-149"><polyline id="path-148" class="cls-1" points="1895.6 1582.88 -690.19 1582.88 602.71 -655.56"/></g></mask><mask id="mask-19" x="856.7" y="318.16" width="527.83" height="790.26" maskUnits="userSpaceOnUse"><g id="mask-151"><path id="path-150" class="cls-1" d="M1384.53,698c-37.23,140.53-85.42,276.91-141.3,410.39h0a3833.71,3833.71,0,0,1-258.92-374h0c-44.78-73.6-87.38-154-127.61-238.16h0q47-36.21,96.15-69.13h0c72.08-48,142.92-83.71,212.26-108.94h0Z"/></g></mask><linearGradient id="linear-gradient-7" x1="451.71" y1="1030.08" x2="452.85" y2="1030.08" gradientTransform="translate(239886.4 814744.88) rotate(180) scale(527.83 790.26)" gradientUnits="userSpaceOnUse"><stop offset="0" stop-color="#07365e"/><stop offset="1" stop-color="#074d5e"/></linearGradient><mask id="mask-25" x="358.32" y="539.26" width="273.14" height="324.28" maskUnits="userSpaceOnUse"><g id="mask-190"><path id="path-189" class="cls-1" d="M480.81,598a1395.32,1395.32,0,0,1,150.65,95h0c-58,55.66-114.81,113.1-171.67,170.48h0A929.55,929.55,0,0,1,358.32,539.26h0A1350.08,1350.08,0,0,1,480.81,598"/></g></mask><linearGradient id="linear-gradient-8" x1="451.75" y1="1030.1" x2="452.75" y2="1030.1" gradientTransform="translate(274027.24 866048.36) rotate(180) scale(603.36 840.07)" gradientUnits="userSpaceOnUse"><stop offset="0" stop-color="#ccbdbf"/><stop offset="1" stop-color="#074d5e"/></linearGradient><linearGradient id="linear-gradient-9" x1="451.75" y1="1030.1" x2="452.75" y2="1030.1" gradientTransform="translate(274027.24 866048.36) rotate(180) scale(603.36 840.07)" gradientUnits="userSpaceOnUse"><stop offset="0" stop-color="#6b7cff"/><stop offset="1" stop-color="#31c19c"/></linearGradient><linearGradient id="linear-gradient-10" x1="451.75" y1="1030.1" x2="452.75" y2="1030.1" gradientTransform="translate(274027.24 866048.36) rotate(180) scale(603.36 840.07)" gradientUnits="userSpaceOnUse"><stop offset="0" stop-color="#31c19c"/><stop offset="1" stop-color="#54f6c4"/></linearGradient><linearGradient id="linear-gradient-12" x1="451.75" y1="1030.1" x2="452.75" y2="1030.1" gradientTransform="translate(274027.24 866048.36) rotate(180) scale(603.36 840.07)" gradientUnits="userSpaceOnUse"><stop offset="0" stop-color="#07365e"/><stop offset="1" stop-color="#54f6c4"/></linearGradient><mask id="mask-26" x="516.88" y="389.17" width="3429.38" height="1402.12" maskUnits="userSpaceOnUse"><g id="mask-254"><path id="path-253" class="cls-1" d="M1655.68,1167.49c-143.39,82.92-239.84,237.89-239.84,415.39H516.88c0-510.08,277.18-955.41,689.24-1193.71h0"/></g></mask><mask id="mask-27" x="516.88" y="268.52" width="1693.89" height="1314.36" maskUnits="userSpaceOnUse"><g id="mask-256"><path id="path-255" class="cls-1" d="M1655.68,1167.49c-143.39,82.92-239.84,237.89-239.84,415.39H516.88c0-510.08,277.18-955.41,689.24-1193.71h0"/></g></mask><mask id="mask-28-2" x="516.88" y="389.17" width="1693.94" height="1193.71" maskUnits="userSpaceOnUse"><g id="mask-260"><path id="path-259" class="cls-1" d="M1655.68,1167.49c-143.39,82.92-239.84,237.89-239.84,415.39H516.88c0-510.08,277.18-955.41,689.24-1193.71h0"/></g></mask><mask id="mask-29" x="420.18" y="-818.93" width="3467.12" height="2401.81" maskUnits="userSpaceOnUse"><g id="mask-266"><path id="path-265" class="cls-1" d="M1655.68,1167.49c-143.39,82.92-239.84,237.89-239.84,415.39H516.88c0-510.08,277.18-955.41,689.24-1193.71h0"/></g></mask><mask id="mask-30" x="516.88" y="-501.13" width="1692.66" height="2084.02" maskUnits="userSpaceOnUse"><g id="mask-272"><path id="path-271" class="cls-1" d="M1655.68,1167.49c-143.39,82.92-239.84,237.89-239.84,415.39H516.88c0-510.08,277.18-955.41,689.24-1193.71h0"/></g></mask><mask id="mask-31" x="516.88" y="-127.53" width="1707.66" height="1710.41" maskUnits="userSpaceOnUse"><g id="mask-274"><path id="path-273" class="cls-1" d="M1655.68,1167.49c-143.39,82.92-239.84,237.89-239.84,415.39H516.88c0-510.08,277.18-955.41,689.24-1193.71h0"/></g></mask><mask id="mask-32" x="516.88" y="389.17" width="1138.79" height="1193.71" maskUnits="userSpaceOnUse"><g id="mask-300"><path id="path-299" class="cls-1" d="M1655.68,1167.49c-143.39,82.92-239.84,237.89-239.84,415.39H516.88c0-510.08,277.18-955.41,689.24-1193.71h0"/></g></mask><mask id="mask-33" x="915.67" y="389.17" width="468.85" height="719.26" maskUnits="userSpaceOnUse"><g id="mask-302"><path id="path-301" class="cls-1" d="M1384.53,698c-37.23,140.53-85.42,276.92-141.29,410.39h0a3833.29,3833.29,0,0,1-258.92-374h0c-23.49-38.6-46.38-79.07-68.64-121h0a1383.9,1383.9,0,0,1,290.45-224.25h0Z"/></g></mask><linearGradient id="linear-gradient-14" x1="451.8" y1="1030.03" x2="453.09" y2="1030.03" gradientTransform="translate(213288.23 741608.53) rotate(180) scale(468.85 719.26)" xlink:href="#linear-gradient-7"/><mask id="mask-34-2" x="-405.31" y="-287.49" width="2060.98" height="1870.37" maskUnits="userSpaceOnUse"><g id="mask-307"><path id="path-306" class="cls-1" d="M1655.68,1167.49c-143.39,82.92-239.84,237.89-239.84,415.39H516.88c0-510.08,277.18-955.41,689.24-1193.71h0"/></g></mask><mask id="mask-35" x="351.56" y="-197.9" width="1304.12" height="1780.79" maskUnits="userSpaceOnUse"><g id="mask-315"><path id="path-314" class="cls-1" d="M1655.68,1167.49c-143.39,82.92-239.84,237.89-239.84,415.39H516.88c0-510.08,277.18-955.41,689.24-1193.71h0"/></g></mask><mask id="mask-36" x="516.88" y="-287.58" width="1138.79" height="1870.46" maskUnits="userSpaceOnUse"><g id="mask-317"><path id="path-316" class="cls-1" d="M1655.68,1167.49c-143.39,82.92-239.84,237.89-239.84,415.39H516.88c0-510.08,277.18-955.41,689.24-1193.71h0"/></g></mask><mask id="mask-37" x="459.79" y="389.17" width="1195.88" height="1193.71" maskUnits="userSpaceOnUse"><g id="mask-335"><path id="path-334" class="cls-1" d="M1655.68,1167.49c-143.39,82.92-239.84,237.89-239.84,415.39H516.88c0-510.08,277.18-955.41,689.24-1193.71h0"/></g></mask><mask id="mask-38" x="-179.66" y="389.17" width="1835.33" height="1193.71" maskUnits="userSpaceOnUse"><g id="mask-337"><path id="path-336" class="cls-1" d="M1655.68,1167.49c-143.39,82.92-239.84,237.89-239.84,415.39H516.88c0-510.08,277.18-955.41,689.24-1193.71h0"/></g></mask><mask id="mask-39" x="1206.13" y="204.73" width="2740.14" height="1586.56" maskUnits="userSpaceOnUse"><g id="mask-399"><path id="path-398" class="cls-1" d="M2585.08,389.17l-449.55,778.32a477.78,477.78,0,0,0-239.93-64.18h0a477.79,477.79,0,0,0-239.93,64.18h0L1206.13,389.17c202.81-117.28,438.32-184.44,689.48-184.44h0c251.15,0,486.67,67.16,689.47,184.44"/></g></mask><mask id="mask-40-2" x="1206.13" y="204.73" width="1378.95" height="1106.03" maskUnits="userSpaceOnUse"><g id="mask-401"><path id="path-400" class="cls-1" d="M2585.08,389.17l-449.55,778.32a477.78,477.78,0,0,0-239.93-64.18h0a477.79,477.79,0,0,0-239.93,64.18h0L1206.13,389.17c202.81-117.28,438.32-184.44,689.48-184.44h0c251.15,0,486.67,67.16,689.47,184.44"/></g></mask><mask id="mask-41" x="1206.13" y="204.73" width="1378.95" height="1143.85" maskUnits="userSpaceOnUse"><g id="mask-405"><path id="path-404" class="cls-1" d="M2585.08,389.17l-449.55,778.32a477.78,477.78,0,0,0-239.93-64.18h0a477.79,477.79,0,0,0-239.93,64.18h0L1206.13,389.17c202.81-117.28,438.32-184.44,689.48-184.44h0c251.15,0,486.67,67.16,689.47,184.44"/></g></mask><mask id="mask-42-2" x="420.18" y="-818.93" width="3467.12" height="1986.42" maskUnits="userSpaceOnUse"><g id="mask-411"><path id="path-410" class="cls-1" d="M2585.08,389.17l-449.55,778.32a477.78,477.78,0,0,0-239.93-64.18h0a477.79,477.79,0,0,0-239.93,64.18h0L1206.13,389.17c202.81-117.28,438.32-184.44,689.48-184.44h0c251.15,0,486.67,67.16,689.47,184.44"/></g></mask><mask id="mask-43" x="1206.13" y="-501.13" width="1378.95" height="1668.62" maskUnits="userSpaceOnUse"><g id="mask-417"><path id="path-416" class="cls-1" d="M2585.08,389.17l-449.55,778.32a477.78,477.78,0,0,0-239.93-64.18h0a477.79,477.79,0,0,0-239.93,64.18h0L1206.13,389.17c202.81-117.28,438.32-184.44,689.48-184.44h0c251.15,0,486.67,67.16,689.47,184.44"/></g></mask><mask id="mask-44" x="1206.13" y="-127.53" width="1378.95" height="1295.02" maskUnits="userSpaceOnUse"><g id="mask-419"><path id="path-418" class="cls-1" d="M2585.08,389.17l-449.55,778.32a477.78,477.78,0,0,0-239.93-64.18h0a477.79,477.79,0,0,0-239.93,64.18h0L1206.13,389.17c202.81-117.28,438.32-184.44,689.48-184.44h0c251.15,0,486.67,67.16,689.47,184.44"/></g></mask><mask id="mask-45" x="631.47" y="204.73" width="1953.61" height="1077.57" maskUnits="userSpaceOnUse"><g id="mask-445"><path id="path-444" class="cls-1" d="M2585.08,389.17l-449.55,778.32a477.78,477.78,0,0,0-239.93-64.18h0a477.79,477.79,0,0,0-239.93,64.18h0L1206.13,389.17c202.81-117.28,438.32-184.44,689.48-184.44h0c251.15,0,486.67,67.16,689.47,184.44"/></g></mask><mask id="mask-46" x="856.7" y="204.73" width="1728.38" height="962.76" maskUnits="userSpaceOnUse"><g id="mask-447"><path id="path-446" class="cls-1" d="M2585.08,389.17l-449.55,778.32a477.78,477.78,0,0,0-239.93-64.18h0a477.79,477.79,0,0,0-239.93,64.18h0L1206.13,389.17c202.81-117.28,438.32-184.44,689.48-184.44h0c251.15,0,486.67,67.16,689.47,184.44"/></g></mask><mask id="mask-47" x="-405.31" y="-287.49" width="2990.39" height="1454.98" maskUnits="userSpaceOnUse"><g id="mask-451"><path id="path-450" class="cls-1" d="M2585.08,389.17l-449.55,778.32a477.78,477.78,0,0,0-239.93-64.18h0a477.79,477.79,0,0,0-239.93,64.18h0L1206.13,389.17c202.81-117.28,438.32-184.44,689.48-184.44h0c251.15,0,486.67,67.16,689.47,184.44"/></g></mask><mask id="mask-48" x="351.56" y="-197.9" width="2233.52" height="1365.39" maskUnits="userSpaceOnUse"><g id="mask-459"><path id="path-458" class="cls-1" d="M2585.08,389.17l-449.55,778.32a477.78,477.78,0,0,0-239.93-64.18h0a477.79,477.79,0,0,0-239.93,64.18h0L1206.13,389.17c202.81-117.28,438.32-184.44,689.48-184.44h0c251.15,0,486.67,67.16,689.47,184.44"/></g></mask><mask id="mask-49" x="590.14" y="-287.58" width="1994.94" height="1455.07" maskUnits="userSpaceOnUse"><g id="mask-461"><path id="path-460" class="cls-1" d="M2585.08,389.17l-449.55,778.32a477.78,477.78,0,0,0-239.93-64.18h0a477.79,477.79,0,0,0-239.93,64.18h0L1206.13,389.17c202.81-117.28,438.32-184.44,689.48-184.44h0c251.15,0,486.67,67.16,689.47,184.44"/></g></mask><mask id="mask-50" x="459.79" y="204.73" width="2125.28" height="1144.91" maskUnits="userSpaceOnUse"><g id="mask-479"><path id="path-478" class="cls-1" d="M2585.08,389.17l-449.55,778.32a477.78,477.78,0,0,0-239.93-64.18h0a477.79,477.79,0,0,0-239.93,64.18h0L1206.13,389.17c202.81-117.28,438.32-184.44,689.48-184.44h0c251.15,0,486.67,67.16,689.47,184.44"/></g></mask><mask id="mask-51" x="-179.66" y="204.73" width="2764.74" height="962.76" maskUnits="userSpaceOnUse"><g id="mask-481"><path id="path-480" class="cls-1" d="M2585.08,389.17l-449.55,778.32a477.78,477.78,0,0,0-239.93-64.18h0a477.79,477.79,0,0,0-239.93,64.18h0L1206.13,389.17c202.81-117.28,438.32-184.44,689.48-184.44h0c251.15,0,486.67,67.16,689.47,184.44"/></g></mask><linearGradient id="linear-gradient-15" x1="451.8" y1="1030.03" x2="453.09" y2="1030.03" gradientTransform="translate(213288.23 741608.53) rotate(180) scale(468.85 719.26)" gradientUnits="userSpaceOnUse"><stop offset="0" stop-color="#07365e"/><stop offset="1" stop-color="#07365e"/></linearGradient><linearGradient id="linear-gradient-17" x1="451.75" y1="1030.1" x2="452.75" y2="1030.1" gradientTransform="translate(274027.24 866048.36) rotate(180) scale(603.36 840.07)" xlink:href="#linear-gradient"/></defs><title>background-rework</title><g id="HOME-_" data-name="HOME-✅"><g id="Desktop---Home---Step-04---full"><g id="section-2"><g id="graphic"><g id="Group-3"><g id="Fill-1"><path id="path-2-2" data-name="path-2" class="cls-2" d="M-175.85-224.55,114,147C223.36,282.22,569.44,508.26,801.75,444c261.56-83.58,475.91-65.54,624.84,6.7L1686,585.88V693.64H-106l-101.48-745Z"/></g><g class="cls-3"><g id="Group-4876"><path id="Fill-106" class="cls-4" d="M856.7,496.23q47-36.21,96.15-69.13C1130.74,308.56,1301,265.3,1460.06,268.52a2556.67,2556.67,0,0,1-62.22,377.17c-38.74,159.1-91.82,312.75-154.6,462.74a3833.36,3833.36,0,0,1-258.92-374c-44.78-73.6-87.38-154-127.61-238.16"/><path id="Fill-164" class="cls-5" d="M480.81,598a1395.55,1395.55,0,0,1,150.65,95c-58,55.66-114.81,113.1-171.67,170.48A929.55,929.55,0,0,1,358.32,539.26,1350.39,1350.39,0,0,1,480.81,598"/><g id="Group-261"><g id="Group-257"><g class="cls-6"><path id="Fill-255" class="cls-7" d="M2769.08,1000.42a25.76,25.76,0,1,0,25.77,25.76,25.76,25.76,0,0,0-25.77-25.76m451.62,327.5c-87.39-29.15-183-36.59-275.11-27.28-151,15.26-294.79,72-431.18,138.57-196.86,96.1-382.24,214.78-552.73,352.09A2673.4,2673.4,0,0,1,1680.92,1574q-121.17-107.1-231.81-225.42c388.32-67.28,694.63-373.62,761.72-761.85,75.88,55.78,142.07,107.6,197.12,144.21C2738,950.48,3161.1,1042.05,3542.11,947q28.35-7.08,56.17-15.78Q3701.76,955,3807,970.05a1467,1467,0,0,1,139.28,178.67q-11.65-.18-23.34-.19c-254.51,0-493.82,65-702.21,179.39"/></g></g><g id="Group-260"><g class="cls-8"><path id="Fill-258" class="cls-9" d="M1397.84,645.69a2556.63,2556.63,0,0,0,62.22-377.17c297.85,6,556.16,175.15,750.72,318.18-348.58,131.5-633.64,392.39-796.59,724.06q-89.13-98-171-202.33c62.79-150,115.86-303.65,154.6-462.74"/></g></g></g><g id="Group-269"><g id="Group-268"><g class="cls-8"><path id="Fill-266" class="cls-10" d="M2210.78,586.7l0,0c-67.09,388.23-373.4,694.57-761.72,761.85q-17.59-18.78-34.92-37.82c162.95-331.68,448-592.56,796.59-724.06"/></g></g></g><g id="Group-283"><g id="Group-279"><g class="cls-11"><path id="Fill-277" class="cls-10" d="M2726.7,493.05q-60.76,0-120.31,4.88c-133.28-78.42-264.84-159.91-396.85-239.4-71.62-395.67-392-704.79-793.42-759.66a2654,2654,0,0,0-85.8-317.68H420.18v-.11H2987.91L3887.3,791.29a1187.73,1187.73,0,0,1-165.65,92.59c-260.88-242.51-610.58-390.84-994.94-390.84"/></g></g></g><g id="Group-299"><g id="Group-292"><g class="cls-8"><path id="Fill-290" class="cls-7" d="M1416.13-501.13c401.4,54.87,721.8,364,793.42,759.66-242-145.76-485.59-284.83-744-386.06a2676.53,2676.53,0,0,0-49.4-373.6"/></g></g><g id="Group-295"><g class="cls-8"><path id="Fill-293" class="cls-10" d="M1465.52-127.53c258.42,101.23,502,240.3,744,386.06a945,945,0,0,1,1.29,328.15l-.06,0c-194.56-143-452.87-312.14-750.72-318.18a2642.65,2642.65,0,0,0,5.46-396"/></g></g></g><g id="Group-337"><g id="Group-336"><g class="cls-8"><path id="Fill-334" class="cls-7" d="M984.31,734.39a3833.49,3833.49,0,0,0,258.92,374q-36.72,87.72-77.6,173.88c-64.68-97.17-133.44-191.78-208-280.4A75.93,75.93,0,1,0,856,889.13c-69.47-71.76-143.93-137.87-224.51-196.07,72.5-69.6,146.8-136.41,225.23-196.83,40.23,84.19,82.83,164.57,127.61,238.16"/></g></g></g><g id="Group-340"><g class="cls-12"><path id="Fill-338" class="cls-13" d="M1460.06,268.52a2556.62,2556.62,0,0,1-62.22,377.17h0q-6.4,26.28-13.31,52.35h0L1165.12,318.16c95.91-34.89,189-49.81,278.53-49.81h0c5.49,0,10.95.06,16.41.17"/></g></g><g id="Group-377"><g id="Group-346"><g class="cls-14"><path id="Fill-344" class="cls-15" d="M590.14-197.9C441.78-32.27,351.56,186.47,351.56,426.28a945.1,945.1,0,0,0,6.77,113C188.48,468,5.14,431.25-179.66,427A1456.22,1456.22,0,0,0-405.31-9l47.72-193c307.45-28.91,614.71-79.16,920-85.5q13.31,43.86,27.75,89.59"/></g></g><g id="Group-358"><g class="cls-16"><path id="Fill-356" class="cls-17" d="M590.14-197.9C660.27,23.8,750.21,273.4,856.7,496.23,778.26,556.64,704,623.46,631.47,693.06a1395.67,1395.67,0,0,0-150.65-95,1350.62,1350.62,0,0,0-122.49-58.75,945.1,945.1,0,0,1-6.77-113c0-239.81,90.23-458.56,238.58-624.19"/></g></g></g><g id="Group-397"><g id="Group-390"><path id="Fill-388" class="cls-17" d="M631.47,693.06c80.59,58.2,155,124.31,224.51,196.07a75.93,75.93,0,0,0,101.61,112.78c74.6,88.61,143.35,183.23,208,280.4q-16,33.77-32.46,67.34c-292.63-48.68-539.36-233-673.38-486.11,56.87-57.38,113.69-114.82,171.67-170.48"/></g><g id="Group-393"><path id="Fill-391" class="cls-15" d="M-112.66,934.23q1.39-32,1.4-64.29A1459.4,1459.4,0,0,0-179.66,427c184.8,4.26,368.13,41,538,112.27A929.55,929.55,0,0,0,459.79,863.54q-41.59,42-83.35,83.67C316.3,1007,252,1063.47,184.2,1114.14L-61.36,961a396.58,396.58,0,0,0-51.3-26.74"/></g></g><path id="Fill-398" class="cls-5" d="M480.81,598a1395.55,1395.55,0,0,1,150.65,95c-58,55.66-114.81,113.1-171.67,170.48A929.55,929.55,0,0,1,358.32,539.26,1350.39,1350.39,0,0,1,480.81,598"/><path id="Fill-571" class="cls-18" d="M856.7,496.23q47-36.21,96.15-69.13C1130.74,308.56,1301,265.3,1460.06,268.52a2556.67,2556.67,0,0,1-62.22,377.17c-38.74,159.1-91.82,312.75-154.6,462.74a3833.36,3833.36,0,0,1-258.92-374c-44.78-73.6-87.38-154-127.61-238.16"/><path id="Fill-629" class="cls-5" d="M480.81,598a1395.55,1395.55,0,0,1,150.65,95c-58,55.66-114.81,113.1-171.67,170.48A929.55,929.55,0,0,1,358.32,539.26,1350.39,1350.39,0,0,1,480.81,598"/><path id="Fill-806" class="cls-18" d="M856.7,496.23q47-36.21,96.15-69.13C1130.74,308.56,1301,265.3,1460.06,268.52a2556.67,2556.67,0,0,1-62.22,377.17c-38.74,159.1-91.82,312.75-154.6,462.74a3833.36,3833.36,0,0,1-258.92-374c-44.78-73.6-87.38-154-127.61-238.16"/><path id="Fill-864" class="cls-5" d="M480.81,598a1395.55,1395.55,0,0,1,150.65,95c-58,55.66-114.81,113.1-171.67,170.48A929.55,929.55,0,0,1,358.32,539.26,1350.39,1350.39,0,0,1,480.81,598"/><path id="Fill-1038" class="cls-19" d="M856.7,496.23q47-36.21,96.15-69.13C1130.74,308.56,1301,265.3,1460.06,268.52a2556.67,2556.67,0,0,1-62.22,377.17c-38.74,159.1-91.82,312.75-154.6,462.74a3833.36,3833.36,0,0,1-258.92-374c-44.78-73.6-87.38-154-127.61-238.16"/><path id="Fill-1094" class="cls-5" d="M480.81,598a1395.55,1395.55,0,0,1,150.65,95c-58,55.66-114.81,113.1-171.67,170.48A929.55,929.55,0,0,1,358.32,539.26,1350.39,1350.39,0,0,1,480.81,598"/><g id="Group-1191"><g id="Group-1187"><g class="cls-20"><path id="Fill-1185" class="cls-21" d="M2769.08,1000.42a25.76,25.76,0,1,0,25.77,25.76,25.76,25.76,0,0,0-25.77-25.76m451.62,327.5c-87.39-29.15-183-36.59-275.11-27.28-151,15.26-294.79,72-431.18,138.57-196.85,96.1-382.24,214.78-552.73,352.09A2673.41,2673.41,0,0,1,1680.92,1574q-121.17-107.1-231.81-225.42c388.32-67.28,694.63-373.62,761.72-761.85,75.88,55.78,142.07,107.6,197.12,144.21C2738,950.48,3161.1,1042.05,3542.11,947q28.35-7.08,56.17-15.78Q3701.76,955,3807,970.05a1467,1467,0,0,1,139.28,178.67q-11.65-.18-23.34-.19c-254.51,0-493.82,65-702.21,179.39"/></g></g><g id="Group-1190"><g class="cls-22"><path id="Fill-1188" class="cls-15" d="M1397.84,645.69a2556.62,2556.62,0,0,0,62.22-377.17c297.85,6,556.16,175.15,750.72,318.18-348.58,131.5-633.64,392.39-796.59,724.06q-89.13-98-171-202.33c62.79-150,115.86-303.65,154.6-462.74"/></g></g></g><g id="Group-1201"><g id="Group-1200"><g class="cls-23"><path id="Fill-1198" class="cls-24" d="M2210.78,586.7l0,0c-67.09,388.23-373.4,694.57-761.72,761.85q-17.59-18.78-34.92-37.82c162.95-331.68,448-592.56,796.59-724.06"/></g></g></g><g id="Group-1215"><g id="Group-1211"><g class="cls-25"><path id="Fill-1209" class="cls-24" d="M2726.7,493.05q-60.76,0-120.31,4.88c-133.28-78.42-264.84-159.91-396.85-239.4-71.62-395.67-392-704.79-793.42-759.66a2654,2654,0,0,0-85.8-317.68H420.18v-.11H2987.91L3887.3,791.29a1187.73,1187.73,0,0,1-165.65,92.59c-260.88-242.51-610.58-390.84-994.94-390.84"/></g></g></g><g id="Group-1229"><g id="Group-1222"><g class="cls-26"><path id="Fill-1220" class="cls-21" d="M1416.13-501.13c401.4,54.87,721.8,364,793.42,759.66-242-145.76-485.59-284.83-744-386.06a2676.53,2676.53,0,0,0-49.4-373.6"/></g></g><g id="Group-1225"><g class="cls-27"><path id="Fill-1223" class="cls-24" d="M1465.52-127.53c258.42,101.23,502,240.3,744,386.06a945,945,0,0,1,1.29,328.15l-.06,0c-194.56-143-452.87-312.14-750.72-318.18a2642.66,2642.66,0,0,0,5.46-396"/></g></g></g><g id="Group-1267"><g id="Group-1266"><g class="cls-28"><path id="Fill-1264" class="cls-21" d="M984.31,734.39a3833.51,3833.51,0,0,0,258.92,374q-36.72,87.72-77.6,173.88c-64.68-97.17-133.44-191.78-208-280.4A75.93,75.93,0,1,0,856,889.13c-69.47-71.76-143.93-137.87-224.51-196.07,72.5-69.6,146.8-136.41,225.23-196.83,40.23,84.19,82.83,164.57,127.61,238.16"/></g></g></g><g id="Group-1270"><g class="cls-29"><path id="Fill-1268" class="cls-30" d="M1384.53,698c-37.23,140.53-85.42,276.91-141.3,410.39h0a3833.71,3833.71,0,0,1-258.92-374h0c-44.78-73.6-87.38-154-127.61-238.16h0q47-36.21,96.15-69.13h0c72.08-48,142.92-83.71,212.26-108.94h0Z"/></g></g><g id="Group-1307"><g id="Group-1276"><g class="cls-28"><path id="Fill-1274" class="cls-9" d="M590.14-197.9C441.78-32.27,351.56,186.47,351.56,426.28a945.12,945.12,0,0,0,6.77,113C188.48,468,5.14,431.25-179.66,427A1456.22,1456.22,0,0,0-405.31-9l47.72-193c307.45-28.91,614.71-79.16,920-85.5q13.31,43.86,27.75,89.59"/></g></g><g id="Group-1288"><g class="cls-28"><path id="Fill-1286" class="cls-31" d="M590.14-197.9C660.27,23.8,750.21,273.4,856.7,496.23,778.26,556.64,704,623.46,631.47,693.06a1395.66,1395.66,0,0,0-150.65-95,1350.62,1350.62,0,0,0-122.49-58.75,945.12,945.12,0,0,1-6.77-113c0-239.81,90.23-458.56,238.58-624.19"/></g></g><g id="Group-1291"><g class="cls-28"><path id="Fill-1289" class="cls-21" d="M952.85,427.1q-49.22,32.8-96.15,69.13C750.21,273.4,660.27,23.8,590.14-197.9a942.08,942.08,0,0,1,92.09-89.68c109.18,2.25,218.07,11.24,326.59,30,158.65,27.38,310.07,72.64,456.71,130.08a2642.65,2642.65,0,0,1-5.46,396c-159-3.22-329.32,40-507.21,158.58"/></g></g></g><g id="Group-1327"><g id="Group-1320"><g class="cls-28"><path id="Fill-1318" class="cls-31" d="M631.47,693.06c80.59,58.2,155,124.31,224.51,196.07a75.93,75.93,0,0,0,101.61,112.78c74.6,88.61,143.35,183.23,208,280.4q-16,33.77-32.46,67.34c-292.63-48.68-539.36-233-673.38-486.11,56.87-57.38,113.69-114.82,171.67-170.48"/></g></g><g id="Group-1323"><g class="cls-28"><path id="Fill-1321" class="cls-9" d="M-112.66,934.23q1.39-32,1.4-64.29A1459.4,1459.4,0,0,0-179.66,427c184.8,4.26,368.13,41,538,112.27A929.55,929.55,0,0,0,459.79,863.54q-41.59,42-83.35,83.67C316.3,1007,252,1063.47,184.2,1114.14L-61.36,961a396.59,396.59,0,0,0-51.3-26.74"/></g></g></g><g id="Group-1330"><g class="cls-32"><path id="Fill-1328" class="cls-5" d="M480.81,598a1395.32,1395.32,0,0,1,150.65,95h0c-58,55.66-114.81,113.1-171.67,170.48h0A929.55,929.55,0,0,1,358.32,539.26h0A1350.08,1350.08,0,0,1,480.81,598"/></g></g><path id="Fill-1504" class="cls-33" d="M856.7,496.23q47-36.21,96.15-69.13C1130.74,308.56,1301,265.3,1460.06,268.52a2556.67,2556.67,0,0,1-62.22,377.17c-38.74,159.1-91.82,312.75-154.6,462.74a3833.36,3833.36,0,0,1-258.92-374c-44.78-73.6-87.38-154-127.61-238.16"/><path id="Fill-1562" class="cls-5" d="M480.81,598a1395.55,1395.55,0,0,1,150.65,95c-58,55.66-114.81,113.1-171.67,170.48A929.55,929.55,0,0,1,358.32,539.26,1350.39,1350.39,0,0,1,480.81,598"/><path id="Fill-1734" class="cls-34" d="M856.7,496.23q47-36.21,96.15-69.13C1130.74,308.56,1301,265.3,1460.06,268.52a2556.67,2556.67,0,0,1-62.22,377.17c-38.74,159.1-91.82,312.75-154.6,462.74a3833.36,3833.36,0,0,1-258.92-374c-44.78-73.6-87.38-154-127.61-238.16"/><path id="Fill-1792" class="cls-5" d="M480.81,598a1395.55,1395.55,0,0,1,150.65,95c-58,55.66-114.81,113.1-171.67,170.48A929.55,929.55,0,0,1,358.32,539.26,1350.39,1350.39,0,0,1,480.81,598"/><path id="Fill-1967" class="cls-35" d="M856.7,496.23q47-36.21,96.15-69.13C1130.74,308.56,1301,265.3,1460.06,268.52a2556.67,2556.67,0,0,1-62.22,377.17c-38.74,159.1-91.82,312.75-154.6,462.74a3833.36,3833.36,0,0,1-258.92-374c-44.78-73.6-87.38-154-127.61-238.16"/><path id="Fill-2025" class="cls-5" d="M480.81,598a1395.55,1395.55,0,0,1,150.65,95c-58,55.66-114.81,113.1-171.67,170.48A929.55,929.55,0,0,1,358.32,539.26,1350.39,1350.39,0,0,1,480.81,598"/><path id="Fill-2198" class="cls-35" d="M856.7,496.23q47-36.21,96.15-69.13C1130.74,308.56,1301,265.3,1460.06,268.52a2556.67,2556.67,0,0,1-62.22,377.17c-38.74,159.1-91.82,312.75-154.6,462.74a3833.36,3833.36,0,0,1-258.92-374c-44.78-73.6-87.38-154-127.61-238.16"/><path id="Fill-2256" class="cls-5" d="M480.81,598a1395.55,1395.55,0,0,1,150.65,95c-58,55.66-114.81,113.1-171.67,170.48A929.55,929.55,0,0,1,358.32,539.26,1350.39,1350.39,0,0,1,480.81,598"/><path id="Fill-2428" class="cls-36" d="M856.7,496.23q47-36.21,96.15-69.13C1130.74,308.56,1301,265.3,1460.06,268.52a2556.67,2556.67,0,0,1-62.22,377.17c-38.74,159.1-91.82,312.75-154.6,462.74a3833.36,3833.36,0,0,1-258.92-374c-44.78-73.6-87.38-154-127.61-238.16"/><path id="Fill-2486" class="cls-5" d="M480.81,598a1395.55,1395.55,0,0,1,150.65,95c-58,55.66-114.81,113.1-171.67,170.48A929.55,929.55,0,0,1,358.32,539.26,1350.39,1350.39,0,0,1,480.81,598"/><path id="Fill-2658" class="cls-19" d="M856.7,496.23q47-36.21,96.15-69.13C1130.74,308.56,1301,265.3,1460.06,268.52a2556.67,2556.67,0,0,1-62.22,377.17c-38.74,159.1-91.82,312.75-154.6,462.74a3833.36,3833.36,0,0,1-258.92-374c-44.78-73.6-87.38-154-127.61-238.16"/><path id="Fill-2716" class="cls-5" d="M480.81,598a1395.55,1395.55,0,0,1,150.65,95c-58,55.66-114.81,113.1-171.67,170.48A929.55,929.55,0,0,1,358.32,539.26,1350.39,1350.39,0,0,1,480.81,598"/><path id="Stroke-2784" class="cls-37" d="M1895.6,2062.46c265,0,479.77-214.71,479.77-479.57s-214.8-479.58-479.77-479.58S1415.83,1318,1415.83,1582.88,1630.63,2062.46,1895.6,2062.46Zm0-1857.73c761.45,0,1378.72,617,1378.72,1378.15S2657,2961,1895.6,2961,516.88,2344,516.88,1582.88,1134.16,204.73,1895.6,204.73Z"/><g id="Group-2816"><g id="Group-2812"><g class="cls-38"><path id="Fill-2810" class="cls-21" d="M2769.08,1000.42a25.76,25.76,0,1,0,25.77,25.76,25.76,25.76,0,0,0-25.77-25.76m451.62,327.5c-87.39-29.15-183-36.59-275.11-27.28-151,15.26-294.79,72-431.18,138.57-196.86,96.1-382.24,214.78-552.73,352.09A2673.39,2673.39,0,0,1,1680.92,1574q-121.17-107.1-231.81-225.42c388.32-67.28,694.63-373.62,761.72-761.85,75.88,55.78,142.07,107.6,197.12,144.21C2738,950.48,3161.1,1042.05,3542.11,947q28.35-7.08,56.17-15.78Q3701.76,955,3807,970.05a1467,1467,0,0,1,139.28,178.67q-11.65-.18-23.34-.19c-254.51,0-493.82,65-702.21,179.39"/></g></g><g id="Group-2815"><g class="cls-39"><path id="Fill-2813" class="cls-15" d="M1397.84,645.69a2556.62,2556.62,0,0,0,62.22-377.17c297.85,6,556.16,175.15,750.72,318.18-348.58,131.5-633.64,392.39-796.59,724.06q-89.13-98-171-202.33c62.79-150,115.86-303.65,154.6-462.74"/></g></g></g><g id="Group-2826"><g id="Group-2825"><g class="cls-40"><path id="Fill-2823" class="cls-24" d="M2210.78,586.7l0,0c-67.09,388.23-373.4,694.57-761.72,761.85q-17.59-18.78-34.92-37.82c162.95-331.68,448-592.56,796.59-724.06"/></g></g></g><g id="Group-2840"><g id="Group-2836"><g class="cls-41"><path id="Fill-2834" class="cls-24" d="M2726.7,493.05q-60.76,0-120.31,4.88c-133.28-78.42-264.84-159.91-396.85-239.4-71.62-395.67-392-704.79-793.42-759.66a2654,2654,0,0,0-85.8-317.68H420.18v-.11H2987.91L3887.3,791.29a1187.73,1187.73,0,0,1-165.65,92.59c-260.88-242.51-610.58-390.84-994.94-390.84"/></g></g></g><g id="Group-2854"><g id="Group-2847"><g class="cls-42"><path id="Fill-2845" class="cls-21" d="M1416.13-501.13c401.4,54.87,721.8,364,793.42,759.66-242-145.76-485.59-284.83-744-386.06a2676.53,2676.53,0,0,0-49.4-373.6"/></g></g><g id="Group-2850"><g class="cls-43"><path id="Fill-2848" class="cls-24" d="M1465.52-127.53c258.42,101.23,502,240.3,744,386.06a945,945,0,0,1,1.29,328.15l-.06,0c-194.56-143-452.87-312.14-750.72-318.18a2642.66,2642.66,0,0,0,5.46-396"/></g></g></g><g id="Group-2892"><g id="Group-2891"><g class="cls-44"><path id="Fill-2889" class="cls-21" d="M984.31,734.39a3833.51,3833.51,0,0,0,258.92,374q-36.72,87.72-77.6,173.88c-64.68-97.17-133.44-191.78-208-280.4A75.93,75.93,0,1,0,856,889.13c-69.47-71.76-143.93-137.87-224.51-196.07,72.5-69.6,146.8-136.41,225.23-196.83,40.23,84.19,82.83,164.57,127.61,238.16"/></g></g></g><g id="Group-2895"><g class="cls-45"><path id="Fill-2893" class="cls-46" d="M1384.53,698c-37.23,140.53-85.42,276.92-141.29,410.39h0a3833.29,3833.29,0,0,1-258.92-374h0c-23.49-38.6-46.38-79.07-68.64-121h0a1383.9,1383.9,0,0,1,290.45-224.25h0Z"/></g></g><g id="Group-2932"><g id="Group-2901"><g class="cls-47"><path id="Fill-2899" class="cls-48" d="M590.14-197.9C441.78-32.27,351.56,186.47,351.56,426.28a945.12,945.12,0,0,0,6.77,113C188.48,468,5.14,431.25-179.66,427A1456.23,1456.23,0,0,0-405.31-9l47.72-193c307.45-28.91,614.71-79.16,920-85.5q13.31,43.86,27.75,89.59"/></g></g><g id="Group-2913"><g class="cls-49"><path id="Fill-2911" class="cls-10" d="M590.14-197.9C660.27,23.8,750.21,273.4,856.7,496.23,778.26,556.64,704,623.46,631.47,693.06a1395.64,1395.64,0,0,0-150.65-95,1350.59,1350.59,0,0,0-122.49-58.75,945.12,945.12,0,0,1-6.77-113c0-239.81,90.23-458.56,238.58-624.19"/></g></g><g id="Group-2916"><g class="cls-50"><path id="Fill-2914" class="cls-21" d="M952.85,427.1q-49.22,32.8-96.15,69.13C750.21,273.4,660.27,23.8,590.14-197.9a942.08,942.08,0,0,1,92.09-89.68c109.18,2.25,218.07,11.24,326.59,30,158.65,27.38,310.07,72.64,456.71,130.08a2642.65,2642.65,0,0,1-5.46,396c-159-3.22-329.32,40-507.21,158.58"/></g></g></g><g id="Group-2952"><g id="Group-2945"><g class="cls-51"><path id="Fill-2943" class="cls-10" d="M631.47,693.06c80.59,58.2,155,124.31,224.51,196.07a75.93,75.93,0,0,0,101.61,112.78c74.6,88.61,143.35,183.23,208,280.4q-16,33.77-32.46,67.34c-292.63-48.68-539.36-233-673.38-486.11,56.87-57.38,113.69-114.82,171.67-170.48"/></g></g><g id="Group-2948"><g class="cls-52"><path id="Fill-2946" class="cls-48" d="M-112.66,934.23q1.39-32,1.4-64.29A1459.4,1459.4,0,0,0-179.66,427c184.8,4.26,368.13,41,538,112.27A929.55,929.55,0,0,0,459.79,863.54q-41.59,42-83.35,83.67C316.3,1007,252,1063.47,184.2,1114.14L-61.36,961a396.58,396.58,0,0,0-51.3-26.74"/></g></g></g><path id="Fill-2953" class="cls-5" d="M480.81,598a1395.55,1395.55,0,0,1,150.65,95c-58,55.66-114.81,113.1-171.67,170.48A929.55,929.55,0,0,1,358.32,539.26,1350.39,1350.39,0,0,1,480.81,598"/><g id="Group-3050"><g id="Group-3046"><g class="cls-53"><path id="Fill-3044" class="cls-54" d="M2769.08,1000.42a25.76,25.76,0,1,0,25.77,25.76,25.76,25.76,0,0,0-25.77-25.76m451.62,327.5c-87.39-29.15-183-36.59-275.11-27.28-151,15.26-294.79,72-431.18,138.57-196.86,96.1-382.24,214.78-552.73,352.09A2673.41,2673.41,0,0,1,1680.92,1574q-121.17-107.1-231.81-225.42c388.32-67.28,694.63-373.62,761.72-761.85,75.88,55.78,142.07,107.6,197.12,144.21C2738,950.48,3161.1,1042.05,3542.11,947q28.35-7.08,56.17-15.78Q3701.76,955,3807,970.05a1467,1467,0,0,1,139.28,178.67q-11.65-.18-23.34-.19c-254.51,0-493.82,65-702.21,179.39"/></g></g><g id="Group-3049"><g class="cls-55"><path id="Fill-3047" class="cls-15" d="M1397.84,645.69a2556.63,2556.63,0,0,0,62.22-377.17c297.85,6,556.16,175.15,750.72,318.18-348.58,131.5-633.64,392.39-796.59,724.06q-89.13-98-171-202.33c62.79-150,115.86-303.65,154.6-462.74"/></g></g></g><g id="Group-3058"><g id="Group-3057"><g class="cls-56"><path id="Fill-3055" class="cls-24" d="M2210.78,586.7l0,0c-67.09,388.23-373.4,694.57-761.72,761.85q-17.59-18.78-34.92-37.82c162.95-331.68,448-592.56,796.59-724.06"/></g></g></g><g id="Group-3072"><g id="Group-3068"><g class="cls-57"><path id="Fill-3066" class="cls-24" d="M2726.7,493.05q-60.76,0-120.31,4.88c-133.28-78.42-264.84-159.91-396.85-239.4-71.62-395.67-392-704.79-793.42-759.66a2654,2654,0,0,0-85.8-317.68H420.18v-.11H2987.91L3887.3,791.29a1187.73,1187.73,0,0,1-165.65,92.59c-260.88-242.51-610.58-390.84-994.94-390.84"/></g></g></g><g id="Group-3088"><g id="Group-3081"><g class="cls-58"><path id="Fill-3079" class="cls-7" d="M1416.13-501.13c401.4,54.87,721.8,364,793.42,759.66-242-145.76-485.59-284.83-744-386.06a2676.53,2676.53,0,0,0-49.4-373.6"/></g></g><g id="Group-3084"><g class="cls-59"><path id="Fill-3082" class="cls-24" d="M1465.52-127.53c258.42,101.23,502,240.3,744,386.06a945,945,0,0,1,1.29,328.15l-.06,0c-194.56-143-452.87-312.14-750.72-318.18a2642.66,2642.66,0,0,0,5.46-396"/></g></g></g><g id="Group-3165"><g id="Group-3125"><g class="cls-60"><path id="Fill-3123" class="cls-7" d="M984.31,734.39a3833.51,3833.51,0,0,0,258.92,374q-36.72,87.72-77.6,173.88c-64.68-97.17-133.44-191.78-208-280.4A75.93,75.93,0,1,0,856,889.13c-69.47-71.76-143.93-137.87-224.51-196.07,72.5-69.6,146.8-136.41,225.23-196.83,40.23,84.19,82.83,164.57,127.61,238.16"/></g></g><g id="Group-3128"><g class="cls-61"><path id="Fill-3126" class="cls-62" d="M856.7,496.23q47-36.21,96.15-69.13C1130.74,308.56,1301,265.3,1460.06,268.52a2556.74,2556.74,0,0,1-62.22,377.17c-38.74,159.1-91.82,312.75-154.61,462.74a3833.51,3833.51,0,0,1-258.92-374c-44.78-73.59-87.38-154-127.61-238.16"/></g></g><g id="Group-3134"><g class="cls-63"><path id="Fill-3132" class="cls-31" d="M590.14-197.9C441.78-32.27,351.56,186.47,351.56,426.28a945.1,945.1,0,0,0,6.77,113C188.48,468,5.14,431.25-179.66,427A1456.23,1456.23,0,0,0-405.31-9l47.72-193c307.45-28.91,614.71-79.16,920-85.5q13.31,43.86,27.75,89.59"/></g></g><g id="Group-3146"><g class="cls-64"><path id="Fill-3144" class="cls-17" d="M590.14-197.9C660.27,23.8,750.21,273.4,856.7,496.23,778.26,556.64,704,623.46,631.47,693.06a1395.64,1395.64,0,0,0-150.65-95,1350.59,1350.59,0,0,0-122.49-58.75,945.1,945.1,0,0,1-6.77-113c0-239.81,90.23-458.56,238.58-624.19"/></g></g><g id="Group-3149"><g class="cls-65"><path id="Fill-3147" class="cls-7" d="M952.85,427.1q-49.22,32.8-96.15,69.13C750.21,273.4,660.27,23.8,590.14-197.9a942.09,942.09,0,0,1,92.09-89.68c109.18,2.25,218.07,11.24,326.59,30,158.65,27.38,310.07,72.64,456.71,130.08a2642.64,2642.64,0,0,1-5.46,396c-159-3.22-329.32,40-507.21,158.58"/></g></g></g><g id="Group-3185"><g id="Group-3178"><g class="cls-66"><path id="Fill-3176" class="cls-17" d="M631.47,693.06c80.59,58.2,155,124.31,224.51,196.07a75.93,75.93,0,0,0,101.61,112.78c74.6,88.61,143.35,183.23,208,280.4q-16,33.77-32.46,67.34c-292.63-48.68-539.36-233-673.38-486.11,56.87-57.38,113.69-114.82,171.67-170.48"/></g></g><g id="Group-3181"><g class="cls-67"><path id="Fill-3179" class="cls-31" d="M-112.66,934.23q1.39-32,1.4-64.29A1459.4,1459.4,0,0,0-179.66,427c184.8,4.26,368.13,41,538,112.27A929.55,929.55,0,0,0,459.79,863.54q-41.59,42-83.35,83.67C316.3,1007,252,1063.47,184.2,1114.14L-61.36,961a396.58,396.58,0,0,0-51.3-26.74"/></g></g></g><path id="Fill-3186" class="cls-5" d="M480.81,598a1395.55,1395.55,0,0,1,150.65,95c-58,55.66-114.81,113.1-171.67,170.48A929.55,929.55,0,0,1,358.32,539.26,1350.39,1350.39,0,0,1,480.81,598"/><g id="Group-3283"><g id="Group-3279"><g class="cls-38"><path id="Fill-3277" class="cls-21" d="M2769.08,1000.42a25.76,25.76,0,1,0,25.77,25.76,25.76,25.76,0,0,0-25.77-25.76m451.62,327.5c-87.39-29.15-183-36.59-275.11-27.28-151,15.26-294.79,72-431.18,138.57-196.86,96.1-382.24,214.78-552.73,352.09A2673.39,2673.39,0,0,1,1680.92,1574q-121.17-107.1-231.81-225.42c388.32-67.28,694.63-373.62,761.72-761.85,75.88,55.78,142.07,107.6,197.12,144.21C2738,950.48,3161.1,1042.05,3542.11,947q28.35-7.08,56.17-15.78Q3701.76,955,3807,970.05a1467,1467,0,0,1,139.28,178.67q-11.65-.18-23.34-.19c-254.51,0-493.82,65-702.21,179.39"/></g></g><g id="Group-3282"><g class="cls-39"><path id="Fill-3280" class="cls-31" d="M1397.84,645.69a2556.62,2556.62,0,0,0,62.22-377.17c297.85,6,556.16,175.15,750.72,318.18-348.58,131.5-633.64,392.39-796.59,724.06q-89.13-98-171-202.33c62.79-150,115.86-303.65,154.6-462.74"/></g></g></g><g id="Group-3293"><g id="Group-3292"><g class="cls-40"><path id="Fill-3290" class="cls-10" d="M2210.78,586.7l0,0c-67.09,388.23-373.4,694.57-761.72,761.85q-17.59-18.78-34.92-37.82c162.95-331.68,448-592.56,796.59-724.06"/></g></g></g><g id="Group-3307"><g id="Group-3303"><g class="cls-41"><path id="Fill-3301" class="cls-10" d="M2726.7,493.05q-60.76,0-120.31,4.88c-133.28-78.42-264.84-159.91-396.85-239.4-71.62-395.67-392-704.79-793.42-759.66a2654,2654,0,0,0-85.8-317.68H420.18v-.11H2987.91L3887.3,791.29a1187.73,1187.73,0,0,1-165.65,92.59c-260.88-242.51-610.58-390.84-994.94-390.84"/></g></g></g><g id="Group-3321"><g id="Group-3314"><g class="cls-42"><path id="Fill-3312" class="cls-21" d="M1416.13-501.13c401.4,54.87,721.8,364,793.42,759.66-242-145.76-485.59-284.83-744-386.06a2676.53,2676.53,0,0,0-49.4-373.6"/></g></g><g id="Group-3317"><g class="cls-43"><path id="Fill-3315" class="cls-10" d="M1465.52-127.53c258.42,101.23,502,240.3,744,386.06a945,945,0,0,1,1.29,328.15l-.06,0c-194.56-143-452.87-312.14-750.72-318.18a2642.66,2642.66,0,0,0,5.46-396"/></g></g></g><g id="Group-3359"><g id="Group-3358"><g class="cls-44"><path id="Fill-3356" class="cls-21" d="M984.31,734.39a3833.51,3833.51,0,0,0,258.92,374q-36.72,87.72-77.6,173.88c-64.68-97.17-133.44-191.78-208-280.4A75.93,75.93,0,1,0,856,889.13c-69.47-71.76-143.93-137.87-224.51-196.07,72.5-69.6,146.8-136.41,225.23-196.83,40.23,84.19,82.83,164.57,127.61,238.16"/></g></g></g><g id="Group-3362"><g class="cls-45"><path id="Fill-3360" class="cls-68" d="M1384.53,698c-37.23,140.53-85.42,276.92-141.29,410.39h0a3833.29,3833.29,0,0,1-258.92-374h0c-23.49-38.6-46.38-79.07-68.64-121h0a1383.9,1383.9,0,0,1,290.45-224.25h0Z"/></g></g><g id="Group-3399"><g id="Group-3368"><g class="cls-47"><path id="Fill-3366" class="cls-48" d="M590.14-197.9C441.78-32.27,351.56,186.47,351.56,426.28a945.12,945.12,0,0,0,6.77,113C188.48,468,5.14,431.25-179.66,427A1456.23,1456.23,0,0,0-405.31-9l47.72-193c307.45-28.91,614.71-79.16,920-85.5q13.31,43.86,27.75,89.59"/></g></g><g id="Group-3380"><g class="cls-49"><path id="Fill-3378" class="cls-24" d="M590.14-197.9C660.27,23.8,750.21,273.4,856.7,496.23,778.26,556.64,704,623.46,631.47,693.06a1395.64,1395.64,0,0,0-150.65-95,1350.59,1350.59,0,0,0-122.49-58.75,945.12,945.12,0,0,1-6.77-113c0-239.81,90.23-458.56,238.58-624.19"/></g></g><g id="Group-3383"><g class="cls-50"><path id="Fill-3381" class="cls-21" d="M952.85,427.1q-49.22,32.8-96.15,69.13C750.21,273.4,660.27,23.8,590.14-197.9a942.08,942.08,0,0,1,92.09-89.68c109.18,2.25,218.07,11.24,326.59,30,158.65,27.38,310.07,72.64,456.71,130.08a2642.65,2642.65,0,0,1-5.46,396c-159-3.22-329.32,40-507.21,158.58"/></g></g></g><g id="Group-3419"><g id="Group-3412"><g class="cls-51"><path id="Fill-3410" class="cls-24" d="M631.47,693.06c80.59,58.2,155,124.31,224.51,196.07a75.93,75.93,0,0,0,101.61,112.78c74.6,88.61,143.35,183.23,208,280.4q-16,33.77-32.46,67.34c-292.63-48.68-539.36-233-673.38-486.11,56.87-57.38,113.69-114.82,171.67-170.48"/></g></g><g id="Group-3415"><g class="cls-52"><path id="Fill-3413" class="cls-48" d="M-112.66,934.23q1.39-32,1.4-64.29A1459.4,1459.4,0,0,0-179.66,427c184.8,4.26,368.13,41,538,112.27A929.55,929.55,0,0,0,459.79,863.54q-41.59,42-83.35,83.67C316.3,1007,252,1063.47,184.2,1114.14L-61.36,961a396.58,396.58,0,0,0-51.3-26.74"/></g></g></g><path id="Fill-3420" class="cls-5" d="M480.81,598a1395.55,1395.55,0,0,1,150.65,95c-58,55.66-114.81,113.1-171.67,170.48A929.55,929.55,0,0,1,358.32,539.26,1350.39,1350.39,0,0,1,480.81,598"/><path id="Fill-3594" class="cls-19" d="M856.7,496.23q47-36.21,96.15-69.13C1130.74,308.56,1301,265.3,1460.06,268.52a2556.67,2556.67,0,0,1-62.22,377.17c-38.74,159.1-91.82,312.75-154.6,462.74a3833.36,3833.36,0,0,1-258.92-374c-44.78-73.6-87.38-154-127.61-238.16"/><path id="Fill-3652" class="cls-5" d="M480.81,598a1395.55,1395.55,0,0,1,150.65,95c-58,55.66-114.81,113.1-171.67,170.48A929.55,929.55,0,0,1,358.32,539.26,1350.39,1350.39,0,0,1,480.81,598"/><g id="Group-3749"><g id="Group-3745"><g class="cls-53"><path id="Fill-3743" class="cls-54" d="M2769.08,1000.42a25.76,25.76,0,1,0,25.77,25.76,25.76,25.76,0,0,0-25.77-25.76m451.62,327.5c-87.39-29.15-183-36.59-275.11-27.28-151,15.26-294.79,72-431.18,138.57-196.86,96.1-382.24,214.78-552.73,352.09A2673.41,2673.41,0,0,1,1680.92,1574q-121.17-107.1-231.81-225.42c388.32-67.28,694.63-373.62,761.72-761.85,75.88,55.78,142.07,107.6,197.12,144.21C2738,950.48,3161.1,1042.05,3542.11,947q28.35-7.08,56.17-15.78Q3701.76,955,3807,970.05a1467,1467,0,0,1,139.28,178.67q-11.65-.18-23.34-.19c-254.51,0-493.82,65-702.21,179.39"/></g></g><g id="Group-3748"><g class="cls-55"><path id="Fill-3746" class="cls-15" d="M1397.84,645.69a2556.63,2556.63,0,0,0,62.22-377.17c297.85,6,556.16,175.15,750.72,318.18-348.58,131.5-633.64,392.39-796.59,724.06q-89.13-98-171-202.33c62.79-150,115.86-303.65,154.6-462.74"/></g></g></g><g id="Group-3757"><g id="Group-3756"><g class="cls-56"><path id="Fill-3754" class="cls-31" d="M2210.78,586.7l0,0c-67.09,388.23-373.4,694.57-761.72,761.85q-17.59-18.78-34.92-37.82c162.95-331.68,448-592.56,796.59-724.06"/></g></g></g><g id="Group-3771"><g id="Group-3767"><g class="cls-57"><path id="Fill-3765" class="cls-31" d="M2726.7,493.05q-60.76,0-120.31,4.88c-133.28-78.42-264.84-159.91-396.85-239.4-71.62-395.67-392-704.79-793.42-759.66a2654,2654,0,0,0-85.8-317.68H420.18v-.11H2987.91L3887.3,791.29a1187.73,1187.73,0,0,1-165.65,92.59c-260.88-242.51-610.58-390.84-994.94-390.84"/></g></g></g><g id="Group-3787"><g id="Group-3780"><g class="cls-58"><path id="Fill-3778" class="cls-7" d="M1416.13-501.13c401.4,54.87,721.8,364,793.42,759.66-242-145.76-485.59-284.83-744-386.06a2676.53,2676.53,0,0,0-49.4-373.6"/></g></g><g id="Group-3783"><g class="cls-59"><path id="Fill-3781" class="cls-31" d="M1465.52-127.53c258.42,101.23,502,240.3,744,386.06a945,945,0,0,1,1.29,328.15l-.06,0c-194.56-143-452.87-312.14-750.72-318.18a2642.66,2642.66,0,0,0,5.46-396"/></g></g></g><g id="Group-3864"><g id="Group-3824"><g class="cls-60"><path id="Fill-3822" class="cls-7" d="M984.31,734.39a3833.51,3833.51,0,0,0,258.92,374q-36.72,87.72-77.6,173.88c-64.68-97.17-133.44-191.78-208-280.4A75.93,75.93,0,1,0,856,889.13c-69.47-71.76-143.93-137.87-224.51-196.07,72.5-69.6,146.8-136.41,225.23-196.83,40.23,84.19,82.83,164.57,127.61,238.16"/></g></g><g id="Group-3827"><g class="cls-61"><path id="Fill-3825" class="cls-62" d="M856.7,496.23q47-36.21,96.15-69.13C1130.74,308.56,1301,265.3,1460.06,268.52a2556.74,2556.74,0,0,1-62.22,377.17c-38.74,159.1-91.82,312.75-154.61,462.74a3833.51,3833.51,0,0,1-258.92-374c-44.78-73.59-87.38-154-127.61-238.16"/></g></g><g id="Group-3833"><g class="cls-63"><path id="Fill-3831" class="cls-21" d="M590.14-197.9C441.78-32.27,351.56,186.47,351.56,426.28a945.1,945.1,0,0,0,6.77,113C188.48,468,5.14,431.25-179.66,427A1456.23,1456.23,0,0,0-405.31-9l47.72-193c307.45-28.91,614.71-79.16,920-85.5q13.31,43.86,27.75,89.59"/></g></g><g id="Group-3845"><g class="cls-64"><path id="Fill-3843" class="cls-17" d="M590.14-197.9C660.27,23.8,750.21,273.4,856.7,496.23,778.26,556.64,704,623.46,631.47,693.06a1395.64,1395.64,0,0,0-150.65-95,1350.59,1350.59,0,0,0-122.49-58.75,945.1,945.1,0,0,1-6.77-113c0-239.81,90.23-458.56,238.58-624.19"/></g></g><g id="Group-3848"><g class="cls-65"><path id="Fill-3846" class="cls-7" d="M952.85,427.1q-49.22,32.8-96.15,69.13C750.21,273.4,660.27,23.8,590.14-197.9a942.09,942.09,0,0,1,92.09-89.68c109.18,2.25,218.07,11.24,326.59,30,158.65,27.38,310.07,72.64,456.71,130.08a2642.64,2642.64,0,0,1-5.46,396c-159-3.22-329.32,40-507.21,158.58"/></g></g></g><g id="Group-3884"><g id="Group-3877"><g class="cls-66"><path id="Fill-3875" class="cls-17" d="M631.47,693.06c80.59,58.2,155,124.31,224.51,196.07a75.93,75.93,0,0,0,101.61,112.78c74.6,88.61,143.35,183.23,208,280.4q-16,33.77-32.46,67.34c-292.63-48.68-539.36-233-673.38-486.11,56.87-57.38,113.69-114.82,171.67-170.48"/></g></g><g id="Group-3880"><g class="cls-67"><path id="Fill-3878" class="cls-21" d="M-112.66,934.23q1.39-32,1.4-64.29A1459.4,1459.4,0,0,0-179.66,427c184.8,4.26,368.13,41,538,112.27A929.55,929.55,0,0,0,459.79,863.54q-41.59,42-83.35,83.67C316.3,1007,252,1063.47,184.2,1114.14L-61.36,961a396.58,396.58,0,0,0-51.3-26.74"/></g></g></g><path id="Fill-3885" class="cls-5" d="M480.81,598a1395.55,1395.55,0,0,1,150.65,95c-58,55.66-114.81,113.1-171.67,170.48A929.55,929.55,0,0,1,358.32,539.26,1350.39,1350.39,0,0,1,480.81,598"/><g id="Group-3982"><g id="Group-3978"><g class="cls-38"><path id="Fill-3976" class="cls-21" d="M2769.08,1000.42a25.76,25.76,0,1,0,25.77,25.76,25.76,25.76,0,0,0-25.77-25.76m451.62,327.5c-87.39-29.15-183-36.59-275.11-27.28-151,15.26-294.79,72-431.18,138.57-196.86,96.1-382.24,214.78-552.73,352.09A2673.39,2673.39,0,0,1,1680.92,1574q-121.17-107.1-231.81-225.42c388.32-67.28,694.63-373.62,761.72-761.85,75.88,55.78,142.07,107.6,197.12,144.21C2738,950.48,3161.1,1042.05,3542.11,947q28.35-7.08,56.17-15.78Q3701.76,955,3807,970.05a1467,1467,0,0,1,139.28,178.67q-11.65-.18-23.34-.19c-254.51,0-493.82,65-702.21,179.39"/></g></g><g id="Group-3981"><g class="cls-39"><path id="Fill-3979" class="cls-21" d="M1397.84,645.69a2556.62,2556.62,0,0,0,62.22-377.17c297.85,6,556.16,175.15,750.72,318.18-348.58,131.5-633.64,392.39-796.59,724.06q-89.13-98-171-202.33c62.79-150,115.86-303.65,154.6-462.74"/></g></g></g><g id="Group-4006"><g id="Group-4002"><g class="cls-41"><path id="Fill-4000" class="cls-10" d="M2726.7,493.05q-60.76,0-120.31,4.88c-133.28-78.42-264.84-159.91-396.85-239.4-71.62-395.67-392-704.79-793.42-759.66a2654,2654,0,0,0-85.8-317.68H420.18v-.11H2987.91L3887.3,791.29a1187.73,1187.73,0,0,1-165.65,92.59c-260.88-242.51-610.58-390.84-994.94-390.84"/></g></g></g><g id="Group-4020"><g id="Group-4013"><g class="cls-42"><path id="Fill-4011" class="cls-24" d="M1416.13-501.13c401.4,54.87,721.8,364,793.42,759.66-242-145.76-485.59-284.83-744-386.06a2676.53,2676.53,0,0,0-49.4-373.6"/></g></g><g id="Group-4016"><g class="cls-43"><path id="Fill-4014" class="cls-10" d="M1465.52-127.53c258.42,101.23,502,240.3,744,386.06a945,945,0,0,1,1.29,328.15l-.06,0c-194.56-143-452.87-312.14-750.72-318.18a2642.66,2642.66,0,0,0,5.46-396"/></g></g></g><g id="Group-4098"><g id="Group-4067"><g class="cls-47"><path id="Fill-4065" class="cls-48" d="M590.14-197.9C441.78-32.27,351.56,186.47,351.56,426.28a945.12,945.12,0,0,0,6.77,113C188.48,468,5.14,431.25-179.66,427A1456.23,1456.23,0,0,0-405.31-9l47.72-193c307.45-28.91,614.71-79.16,920-85.5q13.31,43.86,27.75,89.59"/></g></g><g id="Group-4079"><g class="cls-49"><path id="Fill-4077" class="cls-31" d="M590.14-197.9C660.27,23.8,750.21,273.4,856.7,496.23,778.26,556.64,704,623.46,631.47,693.06a1395.64,1395.64,0,0,0-150.65-95,1350.59,1350.59,0,0,0-122.49-58.75,945.12,945.12,0,0,1-6.77-113c0-239.81,90.23-458.56,238.58-624.19"/></g></g><g id="Group-4082"><g class="cls-50"><path id="Fill-4080" class="cls-24" d="M952.85,427.1q-49.22,32.8-96.15,69.13C750.21,273.4,660.27,23.8,590.14-197.9a942.08,942.08,0,0,1,92.09-89.68c109.18,2.25,218.07,11.24,326.59,30,158.65,27.38,310.07,72.64,456.71,130.08a2642.65,2642.65,0,0,1-5.46,396c-159-3.22-329.32,40-507.21,158.58"/></g></g></g><g id="Group-4118"><g id="Group-4111"><g class="cls-51"><path id="Fill-4109" class="cls-31" d="M631.47,693.06c80.59,58.2,155,124.31,224.51,196.07a75.93,75.93,0,0,0,101.61,112.78c74.6,88.61,143.35,183.23,208,280.4q-16,33.77-32.46,67.34c-292.63-48.68-539.36-233-673.38-486.11,56.87-57.38,113.69-114.82,171.67-170.48"/></g></g><g id="Group-4114"><g class="cls-52"><path id="Fill-4112" class="cls-48" d="M-112.66,934.23q1.39-32,1.4-64.29A1459.4,1459.4,0,0,0-179.66,427c184.8,4.26,368.13,41,538,112.27A929.55,929.55,0,0,0,459.79,863.54q-41.59,42-83.35,83.67C316.3,1007,252,1063.47,184.2,1114.14L-61.36,961a396.58,396.58,0,0,0-51.3-26.74"/></g></g></g><path id="Fill-4119" class="cls-5" d="M480.81,598a1395.55,1395.55,0,0,1,150.65,95c-58,55.66-114.81,113.1-171.67,170.48A929.55,929.55,0,0,1,358.32,539.26,1350.39,1350.39,0,0,1,480.81,598"/><path id="Fill-4291" class="cls-69" d="M856.7,496.23q47-36.21,96.15-69.13C1130.74,308.56,1301,265.3,1460.06,268.52a2556.67,2556.67,0,0,1-62.22,377.17c-38.74,159.1-91.82,312.75-154.6,462.74a3833.36,3833.36,0,0,1-258.92-374c-44.78-73.6-87.38-154-127.61-238.16"/><path id="Fill-4349" class="cls-5" d="M480.81,598a1395.55,1395.55,0,0,1,150.65,95c-58,55.66-114.81,113.1-171.67,170.48A929.55,929.55,0,0,1,358.32,539.26,1350.39,1350.39,0,0,1,480.81,598"/><path id="Fill-4521" class="cls-19" d="M856.7,496.23q47-36.21,96.15-69.13C1130.74,308.56,1301,265.3,1460.06,268.52a2556.67,2556.67,0,0,1-62.22,377.17c-38.74,159.1-91.82,312.75-154.6,462.74a3833.36,3833.36,0,0,1-258.92-374c-44.78-73.6-87.38-154-127.61-238.16"/></g></g></g><circle id="Oval" class="cls-70" cx="834.5" cy="430.5" r="19.5"/></g></g></g></g></svg>